<?xml version="1.0" encoding="UTF-8"?>
<svg width="41px" height="29px" viewBox="0 0 41 29" version="1.1" xmlns="http://www.w3.org/2000/svg" xmlns:xlink="http://www.w3.org/1999/xlink">
    <title>Group</title>
    <g id="Page-1" stroke="none" stroke-width="1" fill="none" fill-rule="evenodd">
        <g id="heart" transform="translate(0.4037, 0)" fill="#b4a996" fill-rule="nonzero">
            <g id="Group">
                <path d="M31.1329975,6.71164482 C31.1329975,-0.826617125 19.9999926,-2.36095107 19.9999926,3.88106605 C19.9999926,-2.36095107 8.86698681,-0.826617125 8.86698681,6.71164482 C8.86698681,14.2499068 19.9999926,20.3608765 19.9999926,20.3608765 C19.9999926,20.3608765 31.1329975,14.2499076 31.1329975,6.71164482 Z M21.7993433,11.9665462 C23.137147,9.70795118 25.9257194,8.44941658 27.0817629,8.1727187 C24.0399112,8.77126675 22.3140733,10.0928966 21.3907548,11.3713959 C21.3907548,11.3713959 21.3907548,11.3713116 21.3907548,11.3712274 C21.0234436,11.9614357 20.7040645,12.6531244 20.5482499,13.4307931 C20.5819175,13.9644208 20.5393205,14.4771571 20.4115577,14.9388725 C20.4101537,14.9440111 20.4090024,14.9492901 20.4075703,14.9544287 C20.3967315,14.9928137 20.3895431,15.0333328 20.3774688,15.0709597 C20.149742,15.7799735 19.5568661,15.6166616 19.72512,14.6736311 C19.9827517,13.2299948 19.6692412,11.9000815 19.1989896,10.8039321 C19.1989334,10.8040163 19.1989054,10.8042129 19.1989054,10.8042129 C18.3555018,9.16028369 16.5902962,7.32471012 13.1731866,6.09403152 C14.4631424,6.61875704 17.4703157,8.56903635 18.6205747,11.4211813 C12.5862074,12.896997 12.7731905,5.98362194 10.5664017,4.9121266 C18.6352043,4.39627341 19.7854353,7.2550443 19.3810868,9.93126952 C19.8018339,10.5807543 20.1391279,11.3615961 20.3437731,12.1613917 C20.61025,11.5899968 20.9580177,11.0520729 21.3494215,10.6114173 C21.352791,8.30109932 22.6914091,6.0369173 29.4335828,7.51101931 C27.433518,8.13107639 26.7012261,13.9887378 21.7993433,11.9665462 Z" id="Shape"></path>
                <path d="M39.7940294,14.4254903 C39.3512678,12.4845335 38.1876147,8.60761789 38.1876147,8.60761789 C38.1876147,8.60761789 37.4658246,8.63151375 37.1244871,9.76037607 C37.0411464,10.0353049 36.9807187,10.3751261 36.959322,10.796519 L37.4317358,13.5789138 C37.4317358,13.5789138 38.6425629,20.2689434 32.4430023,21.977793 C31.4547634,22.2521041 30.2815071,22.3991017 28.8825175,22.3723136 C28.8825175,22.3723136 34.9227254,19.0767332 33.7619926,15.2941094 C33.7619926,15.2941094 32.8595374,16.1669405 31.140186,17.6267508 C29.4183916,19.0853817 27.0206333,19.8254798 24.8247122,21.0216774 C22.6276399,22.2203179 20.6092109,25.7433723 21.2613071,28.4257471 L21.2793624,28.8900177 C21.2793624,28.8900177 22.5260474,28.1186107 24.6534818,27.2853721 C24.6606983,27.2828449 24.6703578,27.2814409 24.6787536,27.2764427 C26.2094091,26.7576693 28.0551195,26.2634094 30.1331055,25.9730367 C30.1331055,25.9730367 30.9019292,25.9385828 32.1896386,25.3636779 C33.1442941,25.1033224 34.8979591,24.4062426 37.0729607,22.5196481 C40.2258679,19.7842588 40.2355554,16.3688902 39.7940294,14.4254903 Z" id="Path"></path>
                <path d="M35.9160468,13.9220484 C35.9160468,13.9220484 36.9485394,19.6486897 32.1989612,21.8612059 C32.2097719,21.857387 32.2230537,21.8547195 32.2338363,21.8509006 C38.3931585,20.125849 37.1876946,13.4623548 37.1876946,13.4623548 L36.7152247,10.67996 C36.7366777,10.2585671 36.7970491,9.91871783 36.8804179,9.64381702 C36.7541713,9.21781904 36.6743686,8.95190378 36.6743686,8.95190378 C36.6743686,8.95190378 36.338282,8.96524166 36.0182009,9.32789167 C35.7525946,9.62666028 35.4949628,10.1660443 35.4460198,11.1408329 L35.9160468,13.9220484 Z" id="Path"></path>
                <path d="M31.2557903,21.9532513 C31.5122708,21.886927 31.7565647,21.814762 31.9898232,21.7343416 C31.9789844,21.7381885 31.9657307,21.740828 31.9549201,21.7446188 C36.7044701,19.5321026 35.6719776,13.8054894 35.6719776,13.8054894 L35.2019505,11.0242458 C35.2508936,10.0494852 35.5085253,9.51010123 35.7741598,9.21133263 C35.4367254,9.35288266 34.859546,9.81459808 34.7485748,11.3082445 L35.1534568,14.1003549 C35.1534568,14.1003549 36.0557155,19.8486457 31.2557903,21.9532513 Z" id="Path"></path>
                <path d="M15.175273,21.0216774 C12.979352,19.8254799 10.5816209,19.0853818 8.85979839,17.6267509 C7.14047503,16.1669406 6.23799173,15.2941095 6.23799173,15.2941095 C5.077287,19.0767332 11.1174949,22.3723136 11.1174949,22.3723136 C9.7184773,22.3991017 8.54522093,22.2521042 7.55698204,21.9777931 C1.35742153,20.2689434 2.56824859,13.5789138 2.56824859,13.5789138 L3.04069046,10.796519 C3.01926562,10.3751261 2.95883797,10.0353049 2.87549728,9.76037607 C2.53418787,8.63151375 1.81239778,8.60761789 1.81239778,8.60761789 C1.81239778,8.60761789 0.648716793,12.4845335 0.205983308,14.4254903 C-0.235570818,16.3688902 -0.225855252,19.7842588 2.92702362,22.5196481 C5.10202523,24.4062425 6.85571825,25.1033224 7.81037372,25.3636779 C9.09808317,25.9385828 9.86690686,25.9730367 9.86690686,25.9730367 C11.9448657,26.2634094 13.7905761,26.7576693 15.3212316,27.2764427 C15.3296274,27.2814409 15.3392869,27.2828449 15.3465033,27.2853721 C17.4739659,28.1186107 18.7206228,28.8900177 18.7206228,28.8900177 L18.7387061,28.4257471 C19.3907743,25.7433724 17.3723734,22.2203179 15.175273,21.0216774 Z" id="Path"></path>
                <path d="M2.81231783,13.4623548 C2.81231783,13.4623548 1.60682588,20.125849 7.76614814,21.8509007 C7.77693077,21.8547195 7.79021248,21.8573871 7.80102321,21.8612059 C3.05144507,19.6486897 4.08393765,13.9220485 4.08393765,13.9220485 L4.55396467,11.140833 C4.50504975,10.1660444 4.24741799,9.62666033 3.98181161,9.32789177 C3.6617024,8.96524176 3.32561581,8.95190387 3.32561581,8.95190387 C3.32561581,8.95190387 3.24584122,9.21781913 3.11956656,9.64381711 C3.20293536,9.91871792 3.26330684,10.2585672 3.28475974,10.6799601 L2.81231783,13.4623548 Z" id="Path"></path>
                <path d="M4.32800684,13.8054894 C4.32800684,13.8054894 3.29551426,19.5321026 8.0450924,21.7446188 C8.0342536,21.740828 8.02099996,21.7381885 8.01018927,21.7343416 C8.24341971,21.814762 8.48771359,21.8869269 8.74422212,21.9532513 C3.94429695,19.8486457 4.84652754,14.1003549 4.84652754,14.1003549 L5.25140951,11.3082445 C5.14043834,9.81459808 4.56325896,9.35288271 4.22585264,9.21133263 C4.49145902,9.51010123 4.74909079,10.0494852 4.79803381,11.0242458 L4.32800684,13.8054894 Z" id="Path"></path>
            </g>
        </g>
    </g>
</svg>